<svg xmlns="http://www.w3.org/2000/svg" viewBox="0 0 32 32">
  <defs>
    <linearGradient id="gold-gradient" x1="0%" y1="0%" x2="100%" y2="100%">
      <stop offset="0%" style="stop-color:#D4AF37"/>
      <stop offset="50%" style="stop-color:#F4E4BA"/>
      <stop offset="100%" style="stop-color:#D4AF37"/>
    </linearGradient>
  </defs>
  <rect width="32" height="32" fill="#1a1530" rx="6"/>
  <path d="M16 6 C14 6 12 7 11 9 C10 11 10 13 11 15 C11 16 12 17 13 18 C13 19 13 20 13 21 C13 22 12 23 11 24 C10 25 10 26 11 27 C12 28 14 28 16 28 C18 28 20 28 21 27 C22 26 22 25 21 24 C20 23 19 22 19 21 C19 20 19 19 19 18 C20 17 21 16 21 15 C22 13 22 11 21 9 C20 7 18 6 16 6 Z" fill="url(#gold-gradient)"/>
  <circle cx="16" cy="14" r="2" fill="#1a1530"/>
  <circle cx="13" cy="18" r="1" fill="#1a1530"/>
  <circle cx="19" cy="18" r="1" fill="#1a1530"/>
</svg>
